<svg width="336" height="305" viewBox="0 0 336 305" fill="none" xmlns="http://www.w3.org/2000/svg">
<rect width="336" height="305" fill="#D9D9D9"/>
<path d="M100.04 131.56H105.4V152.48H100.04V131.56ZM80.76 154.16H105.4V168.16H80.76V154.16ZM100.16 158.32H85.96V163.96H100.16V158.32ZM85.24 133.24C91 133.24 95.28 136.92 95.28 142.12C95.28 147.28 91 151 85.24 151C79.48 151 75.16 147.28 75.16 142.12C75.16 136.92 79.48 133.24 85.24 133.24ZM85.24 137.64C82.44 137.64 80.36 139.28 80.36 142.12C80.36 144.92 82.44 146.56 85.24 146.56C88.04 146.56 90.08 144.92 90.08 142.12C90.08 139.28 88.04 137.64 85.24 137.64ZM120.437 134.36H124.757V139.76C124.757 149.28 121.477 157.88 114.117 161.28L110.957 156.88C117.397 154.08 120.437 146.96 120.437 139.76V134.36ZM121.477 134.36H125.797V139.76C125.797 146.6 128.717 153.4 135.037 156.12L131.917 160.4C124.757 157.12 121.477 148.88 121.477 139.76V134.36ZM136.797 131.48H142.157V168.64H136.797V131.48ZM182.852 131.48H188.212V168.64H182.852V131.48ZM168.252 134.08C173.852 134.08 177.972 139.2 177.972 147.28C177.972 155.44 173.852 160.56 168.252 160.56C162.652 160.56 158.532 155.44 158.532 147.28C158.532 139.2 162.652 134.08 168.252 134.08ZM168.252 138.92C165.492 138.92 163.612 141.84 163.612 147.28C163.612 152.8 165.492 155.76 168.252 155.76C171.012 155.76 172.852 152.8 172.852 147.28C172.852 141.84 171.012 138.92 168.252 138.92ZM196.088 134.84H213.888V159.76H196.088V134.84ZM208.688 139H201.328V155.56H208.688V139ZM219.648 131.48H225.008V168.64H219.648V131.48ZM239.965 137.36H244.205V141.52C244.205 150.08 240.725 158.44 233.765 161.6L230.765 157.4C236.965 154.64 239.965 147.8 239.965 141.52V137.36ZM241.165 137.36H245.365V141.52C245.365 147.52 248.325 153.92 254.525 156.48L251.645 160.68C244.605 157.64 241.165 149.76 241.165 141.52V137.36ZM232.245 135.08H253.005V139.44H232.245V135.08ZM256.445 131.52H261.805V168.56H256.445V131.52Z" fill="black"/>
</svg>
