<svg width="21" height="20" viewBox="0 0 21 20" fill="none" xmlns="http://www.w3.org/2000/svg">
<path d="M15.9272 1.84903C18.1069 3.52387 19.4107 5.6573 19.964 8.33971C20.3226 11.1574 19.7048 13.8223 18.0303 16.1273C16.4427 18.1681 14.1318 19.5203 11.5832 19.9437C8.61497 20.1898 6.01171 19.6564 3.62514 17.7964C1.54918 15.9857 0.226646 13.6626 0.018091 10.8931C-0.143697 7.87608 0.781982 5.36012 2.70219 3.04804C6.15465 -0.632635 11.8523 -0.91447 15.9272 1.84903ZM3.4462 3.82031C3.3483 3.91646 3.2504 4.01261 3.14954 4.11167C1.49495 5.85697 0.95943 8.04257 0.97132 10.3768C1.00214 11.4811 1.20671 12.4428 1.63797 13.4642C1.6908 13.5947 1.74363 13.7253 1.79807 13.8598C2.76376 16.0057 4.49999 17.535 6.65181 18.4321C6.78739 18.4834 6.92297 18.5347 7.06266 18.5875C7.25205 18.6598 7.25205 18.6598 7.44526 18.7335C9.60876 19.4394 11.9688 19.1311 14.0036 18.192C16.187 17.0291 17.8399 15.2089 18.6655 12.8615C19.3517 10.5893 19.1759 8.03012 18.1316 5.9099C16.8586 3.58535 15.0036 2.05099 12.4679 1.26277C9.04745 0.377803 5.92313 1.34761 3.4462 3.82031Z" fill="#565656"/>
<path d="M15.322 3.93334C16.9316 5.47305 17.9012 7.48686 17.956 9.72423C17.9723 11.6096 17.7144 13.2251 16.4051 14.6697C16.1564 14.62 15.9078 14.5703 15.6516 14.519C15.7079 13.9563 15.8341 13.5178 16.0943 13.0216C16.9982 11.2858 16.9915 9.48843 16.438 7.64811C15.7209 5.6481 14.3091 4.45701 12.4525 3.54898C11.0733 2.95179 9.07553 2.97408 7.66527 3.45303C7.40992 3.56643 7.15856 3.68921 6.91184 3.82033C6.76965 3.89531 6.62747 3.97029 6.48097 4.04754C4.8988 4.96691 3.91051 6.34724 3.33305 8.07662C2.85033 9.95722 3.15104 11.8254 4.08648 13.5113C5.13073 15.1718 6.54778 16.1265 8.42812 16.6946C9.89239 16.9037 11.1062 16.8114 12.5061 16.3231C12.9061 16.1878 13.2727 16.0718 13.6927 16.0259C13.7922 16.1253 13.8916 16.2248 13.9941 16.3273C13.9752 16.6192 13.9752 16.6192 13.8434 16.93C12.486 18.0935 10.4647 17.9529 8.78158 17.866C6.95321 17.7055 5.12947 16.6088 3.89812 15.2725C2.29835 13.146 1.89716 11.0926 2.08989 8.4916C2.21348 7.84113 2.41165 7.28132 2.69263 6.68336C2.75479 6.54331 2.81695 6.40326 2.88099 6.25897C3.93997 4.09588 5.70964 2.98094 7.8966 2.1722C10.448 1.48548 13.3274 2.25994 15.322 3.93334Z" fill="#565656"/>
<path d="M4.95305 6.83405C5.32017 6.85851 5.32017 6.85851 5.70648 6.98473C5.88884 7.27371 5.88884 7.27371 6.0108 7.6481C6.07854 7.84929 6.07854 7.84929 6.14765 8.05454C6.19165 8.19566 6.23564 8.33678 6.28097 8.48217C6.32788 8.62271 6.37479 8.76324 6.42313 8.90804C6.76129 9.9359 6.76129 9.9359 6.76129 10.2998C7.358 10.2998 7.95472 10.2998 8.56952 10.2998C8.58681 10.1747 8.60409 10.0496 8.62191 9.92075C8.73094 9.33838 8.89877 8.78802 9.0875 8.22789C9.1366 8.07609 9.1366 8.07609 9.18668 7.92122C9.33547 7.47532 9.43816 7.17089 9.77501 6.83405C10.1515 6.84909 10.1515 6.84909 10.5284 6.98473C10.7108 7.27371 10.7108 7.27371 10.8328 7.6481C10.8779 7.78223 10.9231 7.91635 10.9696 8.05454C11.0136 8.19566 11.0576 8.33678 11.1029 8.48217C11.1733 8.69298 11.1733 8.69298 11.2451 8.90804C11.5832 9.9359 11.5832 9.9359 11.5832 10.2998C12.1302 10.2998 12.6772 10.2998 13.2408 10.2998C13.2998 10.0636 13.3589 9.82742 13.4197 9.58407C13.6779 8.6297 14.0475 7.73717 14.4463 6.83405C14.6949 6.88377 14.9435 6.9335 15.1997 6.98473C15.1382 8.19382 14.7612 9.18831 14.2956 10.2998C14.7929 10.2998 15.2901 10.2998 15.8024 10.2998C15.86 10.5494 15.91 10.8008 15.9531 11.0533C15.8024 11.2039 15.8024 11.2039 15.3592 11.2187C15.1792 11.2169 14.9991 11.2152 14.8136 11.2134C14.5429 11.2113 14.5429 11.2113 14.2667 11.2092C14.1271 11.2075 13.9874 11.2057 13.8435 11.2039C13.8282 11.3518 13.8128 11.4996 13.797 11.6519C13.7022 12.3157 13.4764 12.9089 13.2314 13.5302C13.1889 13.6404 13.1465 13.7506 13.1028 13.8642C12.9991 14.1331 12.894 14.4015 12.7887 14.6697C12.5401 14.6697 12.2915 14.6697 12.0353 14.6697C11.5821 13.5802 11.1925 12.4773 10.8298 11.3546C10.2828 11.3049 9.73583 11.2552 9.17226 11.2039C9.11321 11.4401 9.05416 11.6763 8.99332 11.9197C8.73518 12.8741 8.36554 13.7666 7.96677 14.6697C7.71814 14.6697 7.46951 14.6697 7.21334 14.6697C7.06442 14.2904 6.91714 13.9105 6.7707 13.5302C6.72884 13.424 6.68699 13.3178 6.64386 13.2085C6.38659 12.5359 6.23294 11.9206 6.15854 11.2039C5.5121 11.2039 4.86566 11.2039 4.19962 11.2039C4.04894 10.6012 4.04894 10.6012 4.19962 10.2998C4.69689 10.2998 5.19415 10.2998 5.70648 10.2998C5.60859 10.0356 5.60859 10.0356 5.50871 9.76595C5.42388 9.53268 5.33913 9.29939 5.25443 9.06608C5.2113 8.95022 5.16818 8.83435 5.12375 8.71497C4.72485 7.6085 4.72485 7.6085 4.80237 6.98473C4.85209 6.93501 4.90182 6.88528 4.95305 6.83405ZM9.92569 8.79296C9.77651 9.29023 9.62733 9.78749 9.47363 10.2998C9.82172 10.2998 10.1698 10.2998 10.5284 10.2998C10.3793 9.80256 10.2301 9.3053 10.0764 8.79296C10.0267 8.79296 9.97693 8.79296 9.92569 8.79296ZM7.06266 11.2039C7.21184 11.7012 7.36102 12.1985 7.51472 12.7108C7.61417 12.6611 7.71362 12.6113 7.81609 12.5601C7.91965 12.2409 7.91965 12.2409 7.98561 11.8726C8.01086 11.7481 8.03611 11.6236 8.06213 11.4953C8.08039 11.3992 8.09865 11.303 8.11746 11.2039C7.76938 11.2039 7.42129 11.2039 7.06266 11.2039ZM11.8846 11.2039C12.0338 11.7012 12.183 12.1985 12.3367 12.7108C12.6666 12.2159 12.7884 11.7755 12.9394 11.2039C12.5913 11.2039 12.2432 11.2039 11.8846 11.2039Z" fill="#565656"/>
<path d="M14.9208 15.2071C15.1694 15.2568 15.4181 15.3065 15.6742 15.3578C15.6245 15.6064 15.5748 15.855 15.5236 16.1112C15.1563 16.0547 15.1563 16.0547 14.7701 15.9605C14.7204 15.8611 14.6707 15.7616 14.6194 15.6592C14.7189 15.51 14.8184 15.3608 14.9208 15.2071Z" fill="#565656"/>
</svg>
