<svg width="21" height="20" viewBox="0 0 21 20" fill="none" xmlns="http://www.w3.org/2000/svg">
<path d="M16.0128 1.88417C18.3418 3.69928 19.6581 6.05025 20.079 8.95584C20.2986 11.7685 19.5089 14.4452 17.7015 16.6189C16.0764 18.4527 13.7267 19.783 11.2638 19.9872C8.09425 20.1033 5.42775 19.4496 3.0514 17.2436C1.05063 15.3651 0.103494 12.7903 0 10.086C0.0531673 7.18836 1.16735 4.71273 3.18089 2.63996C6.71805 -0.677955 12.1058 -0.798072 16.0128 1.88417ZM3.13439 4.09738C1.3605 6.34333 0.874264 8.72372 1.09248 11.5175C1.3916 13.6868 2.63205 15.6997 4.30869 17.0829C6.57116 18.7475 9.07797 19.3695 11.8418 18.9812C14.3793 18.4217 16.4264 16.896 17.8322 14.7402C19.0981 12.4957 19.4432 9.87678 18.7887 7.37363C17.9822 4.95968 16.4565 3.18317 14.2481 1.94774C10.4339 0.0906689 5.96993 0.904568 3.13439 4.09738Z" fill="white"/>
<path d="M13.2979 2.62704C13.4471 2.77622 13.4471 2.77622 13.5993 2.92841C13.5428 3.32396 13.5428 3.32396 13.4486 3.68184C12.8955 3.6127 12.4018 3.53357 11.8664 3.37105C9.83756 2.85002 7.92232 3.30606 6.15565 4.32873C4.65214 5.31527 3.72669 6.88464 3.28673 8.61682C2.97752 10.4824 3.30864 12.3693 4.40746 13.9285C5.59425 15.4725 6.97584 16.492 8.92804 16.7916C11.1312 16.9599 12.9108 16.5206 14.6883 15.1829C16.1587 13.8572 16.8039 11.9616 16.9615 10.0389C16.9075 8.37026 16.3158 7.00316 15.4076 5.64076C15.4641 5.23579 15.4641 5.23579 15.5582 4.88733C15.9803 4.88733 16.235 4.96465 16.5418 5.25816C17.9483 7.01176 18.1411 9.20096 17.9692 11.3668C17.5831 13.4674 16.4165 15.3055 14.7201 16.5938C12.805 17.8734 10.5867 18.2456 8.35355 17.8275C6.25097 17.3387 4.57533 16.2749 3.37149 14.4653C2.18731 12.474 1.84305 10.382 2.24487 8.09942C2.56791 6.94946 3.10359 5.99916 3.80471 5.03802C3.9064 4.89204 3.9064 4.89204 4.01014 4.74312C6.0536 2.07275 10.3087 1.20998 13.2979 2.62704Z" fill="white"/>
<path d="M5.01012 6.84619C5.37724 6.87066 5.37724 6.87066 5.76355 6.99688C5.94592 7.28585 5.94592 7.28585 6.06787 7.66025C6.13561 7.86144 6.13561 7.86144 6.20472 8.06669C6.24872 8.20781 6.29272 8.34893 6.33805 8.49432C6.38496 8.63486 6.43187 8.77539 6.4802 8.92019C6.81836 9.94805 6.81836 9.94805 6.81836 10.312C7.41508 10.312 8.01179 10.312 8.62659 10.312C8.64388 10.1607 8.66117 10.0093 8.67898 9.85344C8.7641 9.25941 8.94013 8.72008 9.14458 8.15528C9.20965 7.9725 9.27472 7.78971 9.34177 7.60139C9.53071 7.14756 9.53071 7.14756 9.83209 6.84619C10.2086 6.86124 10.2086 6.86124 10.5855 6.99688C10.7679 7.28585 10.7679 7.28585 10.8898 7.66025C10.935 7.79438 10.9802 7.9285 11.0267 8.06669C11.0707 8.20781 11.1147 8.34893 11.16 8.49432C11.2304 8.70513 11.2304 8.70513 11.3022 8.92019C11.6403 9.94805 11.6403 9.94805 11.6403 10.312C12.1873 10.312 12.7343 10.312 13.2979 10.312C13.36 10.0727 13.4222 9.83336 13.4862 9.5868C13.6587 8.96526 13.8345 8.34542 14.0325 7.73147C14.0756 7.59434 14.1187 7.4572 14.1631 7.31591C14.3527 6.99688 14.3527 6.99688 14.74 6.8662C14.8608 6.8596 14.9816 6.853 15.1061 6.84619C15.1807 6.92078 15.1807 6.92078 15.2568 6.99688C15.2166 8.20389 14.816 9.20581 14.3527 10.312C14.8499 10.312 15.3472 10.312 15.8595 10.312C15.9171 10.5615 15.9671 10.8129 16.0102 11.0654C15.8595 11.2161 15.8595 11.2161 15.4163 11.2308C15.2362 11.2291 15.0562 11.2273 14.8707 11.2255C14.6 11.2235 14.6 11.2235 14.3238 11.2214C14.1842 11.2196 14.0445 11.2179 13.9006 11.2161C13.8853 11.3639 13.8699 11.5117 13.8541 11.664C13.7593 12.3278 13.5334 12.921 13.2885 13.5423C13.246 13.6525 13.2036 13.7628 13.1598 13.8764C13.0561 14.1452 12.9511 14.4136 12.8458 14.6819C12.5972 14.6819 12.3485 14.6819 12.0924 14.6819C11.6392 13.5924 11.2496 12.4895 10.8869 11.3668C10.3399 11.3171 9.79291 11.2673 9.22934 11.2161C9.1361 11.5331 9.1361 11.5331 9.04098 11.8565C8.26444 14.4413 8.26444 14.4413 8.02385 14.6819C7.77278 14.688 7.52148 14.6883 7.27042 14.6819C7.1215 14.3025 6.97421 13.9226 6.82778 13.5423C6.78592 13.4362 6.74406 13.33 6.70093 13.2206C6.44366 12.548 6.29001 11.9328 6.21561 11.2161C5.56917 11.2161 4.92272 11.2161 4.25669 11.2161C4.10601 10.6133 4.10601 10.6133 4.25669 10.312C4.75396 10.312 5.25122 10.312 5.76355 10.312C5.66566 10.0477 5.66566 10.0477 5.56578 9.7781C5.48095 9.54483 5.3962 9.31154 5.3115 9.07823C5.26837 8.96237 5.22525 8.8465 5.18082 8.72712C4.78192 7.62064 4.78192 7.62064 4.85944 6.99688C4.90916 6.94715 4.95889 6.89742 5.01012 6.84619ZM9.98277 8.80511C9.83359 9.30238 9.68441 9.79964 9.53071 10.312C9.8788 10.312 10.2269 10.312 10.5855 10.312C10.4363 9.81471 10.2872 9.31745 10.1335 8.80511C10.0837 8.80511 10.034 8.80511 9.98277 8.80511ZM7.11973 11.2161C7.26891 11.7134 7.41809 12.2106 7.57179 12.723C8.01256 12.1353 8.09548 11.9118 8.17454 11.2161C7.82645 11.2161 7.47836 11.2161 7.11973 11.2161ZM11.9417 11.2161C12.0909 11.7134 12.2401 12.2106 12.3938 12.723C12.7237 12.228 12.8455 11.7877 12.9965 11.2161C12.6484 11.2161 12.3003 11.2161 11.9417 11.2161Z" fill="white"/>
</svg>
