<svg width="16" height="20" viewBox="0 0 16 20" fill="none" xmlns="http://www.w3.org/2000/svg">
<path d="M2.45877 0.00569073C2.59457 0.00564702 2.73038 0.00560332 2.8703 0.00555829C3.3197 0.00576699 3.76906 0.00809658 4.21845 0.0104402C4.52983 0.0109983 4.84121 0.0114244 5.15259 0.0117235C5.97256 0.0128668 6.79252 0.0158076 7.61248 0.0191171C8.44903 0.0221774 9.28558 0.0235454 10.1221 0.025054C11.7638 0.0282649 13.4056 0.0333739 15.0473 0.0396678C15.0508 2.61258 15.0534 5.18548 15.055 7.75839C15.0558 8.95296 15.0568 10.1475 15.0586 11.3421C15.06 12.3829 15.061 13.4237 15.0613 14.4645C15.0615 15.0159 15.062 15.5674 15.0631 16.1188C15.0643 16.7334 15.0643 17.348 15.0643 17.9626C15.0648 18.1467 15.0653 18.3309 15.0659 18.5207C15.0657 18.6871 15.0655 18.8535 15.0653 19.0249C15.0654 19.1705 15.0655 19.316 15.0657 19.4659C15.0473 19.7928 15.0473 19.7928 14.8976 19.9425C14.488 19.9591 14.0821 19.966 13.6723 19.9666C13.5438 19.9673 13.4153 19.9681 13.283 19.9688C12.8557 19.971 12.4284 19.9721 12.0012 19.9729C11.7049 19.9737 11.4087 19.9746 11.1125 19.9755C10.4901 19.977 9.86776 19.9779 9.24541 19.9784C8.44849 19.9792 7.65162 19.9828 6.85471 19.9871C6.24222 19.9899 5.62973 19.9907 5.01723 19.9909C4.72351 19.9914 4.42979 19.9926 4.13608 19.9945C3.72447 19.9971 3.31296 19.9968 2.90135 19.9958C2.78027 19.9972 2.6592 19.9986 2.53446 20C1.62441 19.9933 1.03909 19.7969 0.330762 19.1962C-0.0505441 18.503 -0.000618995 17.8464 0.00529421 17.0674C0.00424531 16.898 0.00319641 16.7285 0.00211572 16.554C-0.000518705 15.9939 0.00122579 15.4339 0.00324828 14.8738C0.00284508 14.4845 0.00226417 14.0952 0.0015129 13.7059C0.000630204 12.8898 0.00185666 12.0738 0.00470966 11.2578C0.00796553 10.3156 0.00691316 9.37359 0.00361648 8.43147C0.000567701 7.5237 0.000896895 6.61598 0.00264775 5.70821C0.00304699 5.3226 0.00255724 4.937 0.00116354 4.55139C-0.000357321 4.01225 0.00196184 3.47325 0.00529421 2.93411C0.00408255 2.7748 0.00287088 2.61548 0.0016225 2.45134C0.0119168 1.55192 0.0740996 1.01972 0.681328 0.338958C1.27159 -0.0545488 1.77416 -4.11448e-05 2.45877 0.00569073ZM1.15234 1.12277C0.941605 1.44638 0.925198 1.62947 0.926632 2.01425C0.926015 2.14204 0.925398 2.26983 0.924762 2.4015C0.926376 2.54121 0.92799 2.68093 0.929653 2.82487C0.929588 2.97236 0.929522 3.11984 0.929454 3.27179C0.929768 3.76007 0.933262 4.24827 0.936777 4.73654C0.937614 5.07476 0.938254 5.41298 0.938702 5.75121C0.940417 6.64204 0.944829 7.53284 0.949793 8.42365C0.954382 9.33241 0.956435 10.2412 0.958698 11.1499C0.963515 12.9335 0.971179 14.7171 0.980619 16.5006C1.64729 16.3525 1.64729 16.3525 2.32743 16.2013C2.32743 11.1643 2.32743 6.12723 2.32743 0.937539C1.49841 0.854399 1.49841 0.854399 1.15234 1.12277ZM3.2253 0.937539C3.2253 5.9746 3.2253 11.0117 3.2253 16.2013C6.83025 16.2013 10.4352 16.2013 14.1494 16.2013C14.1494 11.1643 14.1494 6.12723 14.1494 0.937539C13.8037 0.937539 13.458 0.937539 13.1019 0.937539C13.0525 2.41903 13.0031 3.90051 12.9522 5.4269C12.3978 5.20512 11.9537 4.99165 11.4558 4.67867C11.3262 4.82682 11.3262 4.82682 11.1939 4.97796C10.8572 5.27725 10.8572 5.27725 10.2586 5.27725C10.2092 3.84515 10.1599 2.41304 10.109 0.937539C7.83736 0.937539 5.56575 0.937539 3.2253 0.937539ZM11.0068 0.937539C11.0068 1.9252 11.0068 2.91286 11.0068 3.93044C11.3031 3.88106 11.5994 3.83168 11.9047 3.7808C12.0035 3.83018 12.1023 3.87956 12.204 3.93044C12.204 2.94278 12.204 1.95513 12.204 0.937539C11.8089 0.937539 11.4139 0.937539 11.0068 0.937539ZM0.980619 17.6978C0.993703 18.2259 0.993703 18.2259 1.13026 18.7453C1.69327 19.1207 2.13257 19.0846 2.78407 19.0786C2.96807 19.0787 2.96807 19.0787 3.1558 19.0787C3.56147 19.0785 3.9671 19.0762 4.37277 19.0738C4.65396 19.0733 4.93514 19.0729 5.21633 19.0726C5.95659 19.0714 6.69684 19.0685 7.43709 19.0652C8.19239 19.0621 8.9477 19.0607 9.70301 19.0592C11.1851 19.056 12.6673 19.0509 14.1494 19.0446C14.1494 18.8965 14.1494 18.7483 14.1494 18.5957C10.2975 18.5463 6.44566 18.4969 2.47707 18.446C2.47707 18.2485 2.47707 18.051 2.47707 17.8474C6.32894 17.7981 10.1808 17.7487 14.1494 17.6978C14.1494 17.5003 14.1494 17.3027 14.1494 17.0992C12.6261 17.0923 11.1028 17.087 9.57949 17.0837C8.8721 17.0822 8.16472 17.08 7.45734 17.0766C6.77426 17.0734 6.09119 17.0716 5.4081 17.0708C5.14792 17.0703 4.88774 17.0692 4.62756 17.0676C4.26222 17.0654 3.89692 17.0651 3.53157 17.0652C3.3714 17.0636 3.3714 17.0636 3.208 17.062C2.39925 17.0653 1.57431 17.1041 0.980619 17.6978Z" fill="#565656"/>
<path d="M5.35584 11.543C5.52313 11.5425 5.69041 11.5421 5.86276 11.5416C6.13585 11.542 6.13585 11.542 6.41447 11.5425C6.59991 11.5423 6.78535 11.5422 6.9764 11.542C7.36941 11.5419 7.7624 11.5422 8.15541 11.5428C8.66016 11.5437 9.1649 11.5432 9.66965 11.5423C10.1496 11.5416 10.6296 11.5421 11.1096 11.5425C11.2916 11.5422 11.4737 11.5419 11.6613 11.5416C11.9122 11.5423 11.9122 11.5423 12.1682 11.543C12.3163 11.5431 12.4644 11.5432 12.617 11.5434C12.9521 11.5624 12.9521 11.5624 13.1017 11.712C13.1166 11.9439 13.1213 12.1764 13.1216 12.4088C13.1219 12.6197 13.1219 12.6197 13.1222 12.8349C13.1216 12.9829 13.121 13.1308 13.1204 13.2833C13.1213 13.5052 13.1213 13.5052 13.1222 13.7316C13.122 13.8723 13.1218 14.0129 13.1216 14.1578C13.1214 14.2877 13.1213 14.4176 13.1211 14.5515C13.1017 14.8546 13.1017 14.8546 12.9521 15.0042C12.6911 15.019 12.4296 15.0234 12.1682 15.0236C12.0009 15.024 11.8336 15.0245 11.6613 15.025C11.4792 15.0247 11.2972 15.0244 11.1096 15.0241C10.9241 15.0242 10.7387 15.0244 10.5476 15.0245C10.1546 15.0246 9.76165 15.0244 9.36864 15.0237C8.86389 15.0229 8.35915 15.0233 7.8544 15.0242C7.37442 15.0249 6.89444 15.0244 6.41447 15.0241C6.2324 15.0244 6.05034 15.0247 5.86276 15.025C5.61184 15.0243 5.61184 15.0243 5.35584 15.0236C5.20776 15.0234 5.05967 15.0233 4.90709 15.0232C4.57196 15.0042 4.57196 15.0042 4.42231 14.8546C4.4075 14.6227 4.40274 14.3901 4.40244 14.1578C4.40225 14.0171 4.40205 13.8765 4.40186 13.7316C4.40243 13.5837 4.40301 13.4357 4.40361 13.2833C4.40303 13.1353 4.40245 12.9874 4.40186 12.8349C4.40205 12.6943 4.40224 12.5537 4.40244 12.4088C4.40261 12.2789 4.40278 12.149 4.40295 12.0151C4.44197 11.4043 4.8327 11.5434 5.35584 11.543ZM5.32019 12.4602C5.32019 13.0034 5.32019 13.5467 5.32019 14.1063C7.5918 14.1063 9.86342 14.1063 12.2039 14.1063C12.2039 13.5137 12.2039 12.9211 12.2039 12.3106C11.2476 12.3069 10.2913 12.3042 9.335 12.3024C9.0094 12.3016 8.6838 12.3006 8.35821 12.2993C7.89131 12.2975 7.42442 12.2966 6.95752 12.296C6.81099 12.2952 6.66446 12.2944 6.5135 12.2936C6.37869 12.2936 6.24388 12.2936 6.10498 12.2936C5.98569 12.2933 5.86639 12.2929 5.74348 12.2926C5.46695 12.2806 5.46695 12.2806 5.32019 12.4602Z" fill="#565656"/>
</svg>
