<svg width="23" height="20" viewBox="0 0 23 20" fill="none" xmlns="http://www.w3.org/2000/svg">
<path d="M10.2469 1.19745C10.3259 1.27065 10.4049 1.34385 10.4863 1.41927C10.8415 1.80417 10.8415 1.80417 11.2551 1.72659C11.6914 1.58949 11.9681 1.41603 12.3332 1.14168C13.8745 0.086196 15.4952 -0.0514817 17.3239 0.170142C19.0935 0.629847 20.6525 1.75184 21.5973 3.3388C22.5155 5.10337 22.6434 7.09561 22.1082 9.00324C21.4948 10.7579 20.579 12.2596 19.3673 13.6528C19.2378 13.8045 19.1083 13.9562 18.9749 14.1125C17.5353 15.7692 15.89 17.1041 14.131 18.4014C14.0146 18.4877 13.8982 18.574 13.7783 18.6629C11.9398 19.9953 11.9398 19.9953 11.0303 20C10.4382 19.795 9.92923 19.5045 9.40568 19.1648C9.29704 19.0951 9.1884 19.0255 9.07646 18.9538C7.81917 18.1287 6.67156 17.1753 5.53501 16.1907C5.45087 16.1186 5.36674 16.0466 5.28005 15.9724C2.90009 13.9247 0.529517 11.0048 0.033551 7.78386C-0.124429 5.69046 0.255253 3.86904 1.6054 2.23219C3.80591 -0.136766 7.54678 -0.838021 10.2469 1.19745ZM2.54851 3.1839C1.53736 4.44463 1.12911 5.6899 1.29103 7.308C1.63145 9.32545 2.65227 11.1659 3.96317 12.701C4.04057 12.7982 4.11797 12.8953 4.19772 12.9954C4.69032 13.604 5.22901 14.119 5.82298 14.6262C6.05333 14.8259 6.27887 15.0315 6.49961 15.242C8.58905 17.3039 8.58905 17.3039 11.1617 18.451C12.9661 18.3089 14.864 16.1485 16.1437 14.9663C16.4067 14.7249 16.6728 14.487 16.9419 14.2525C19.0771 12.3813 20.8949 9.92002 21.1209 6.98952C21.1849 5.44484 20.7018 4.02724 19.6816 2.86667C18.3381 1.71146 17.1554 1.33968 15.3983 1.39138C13.8917 1.51333 12.9957 2.20663 11.9077 3.22666C11.508 3.50114 11.508 3.50114 11.1157 3.50672C10.6175 3.29888 10.2966 3.01299 9.89689 2.64856C8.61096 1.56171 7.59136 1.34093 5.91754 1.38457C4.52478 1.52528 3.48618 2.15239 2.54851 3.1839Z" fill="#565656"/>
</svg>
