<svg width="23" height="20" viewBox="0 0 23 20" fill="none" xmlns="http://www.w3.org/2000/svg">
<path d="M10.8169 1.57376C10.9724 1.73102 10.9724 1.73102 11.1311 1.89146C11.2882 1.78211 11.2882 1.78211 11.4484 1.67056C13.3425 0.395637 14.9939 -0.119358 17.2583 0.14414C18.4328 0.397895 19.3489 0.935807 20.2433 1.73261C20.3888 1.85762 20.3888 1.85762 20.5373 1.98515C21.835 3.18441 22.2741 4.61151 22.4183 6.34537C22.5403 9.47194 20.7739 12.083 18.8171 14.3405C18.0291 15.1935 18.0291 15.1935 17.3368 15.3934C17.2072 15.3934 17.0776 15.3934 16.9441 15.3934C16.8404 15.1838 16.7367 14.9741 16.6299 14.7581C16.8423 14.4931 17.0551 14.2284 17.2681 13.9638C17.4625 13.7221 17.4625 13.7221 17.6609 13.4755C17.9655 13.1058 18.2777 12.7552 18.6035 12.4051C20.2046 10.5675 21.014 8.43593 20.9264 5.99728C20.8071 4.66246 20.2874 3.58468 19.3007 2.68569C17.9569 1.64528 16.5711 1.41301 14.9017 1.57376C13.7489 1.86187 12.6218 2.50072 11.8522 3.42966C11.6024 3.63877 11.6024 3.63877 11.2226 3.70578C10.697 3.61897 10.5129 3.42148 10.1394 3.0431C8.87648 1.8407 7.72058 1.51225 6.00734 1.52971C4.73507 1.63505 3.54441 2.24551 2.64733 3.16223C1.55035 4.6894 1.38989 6.08379 1.54758 7.92764C1.99162 10.2103 3.36102 11.9516 4.93037 13.5662C5.13812 13.7812 5.34107 14.001 5.54338 14.2213C6.65693 15.408 7.93037 16.3569 9.24583 17.2996C9.33463 17.3639 9.42344 17.4283 9.51494 17.4946C10.3607 18.1716 10.3607 18.1716 11.3643 18.3898C11.9579 18.1839 12.4344 17.8378 12.9532 17.487C13.3306 17.2996 13.3306 17.2996 13.6835 17.3406C13.959 17.4584 13.959 17.4584 14.1161 17.6173C14.1904 17.9772 14.1904 17.9772 14.1161 18.4115C13.7719 18.7108 13.4691 18.9324 13.0851 19.1661C12.9894 19.2293 12.8937 19.2926 12.7952 19.3578C12.1464 19.7673 11.599 19.9973 10.8169 20C10.408 19.8307 10.1008 19.6731 9.73679 19.4341C9.63646 19.3706 9.53614 19.3071 9.43278 19.2416C5.64111 16.7646 1.29826 13.0433 0.183944 8.43955C-0.237263 6.31311 0.0455274 4.52698 1.23337 2.68569C2.14064 1.3367 3.61626 0.533839 5.16105 0.14414C5.3101 0.104826 5.45916 0.065511 5.61273 0.0250051C7.51513 -0.128872 9.28478 0.432332 10.8169 1.57376Z" fill="white"/>
</svg>
