<svg width="21" height="18" viewBox="0 0 21 18" fill="none" xmlns="http://www.w3.org/2000/svg">
<path opacity="0.965" fill-rule="evenodd" clip-rule="evenodd" d="M15.0185 0.00696068C15.3194 -0.0246015 15.5888 0.051172 15.8268 0.234281C17.3843 1.79183 18.9419 3.34943 20.4995 4.90698C20.791 5.30828 20.7995 5.71241 20.5247 6.11936C20.4241 6.22034 20.3062 6.29611 20.1711 6.34668C13.5368 6.38037 6.90234 6.38037 0.267959 6.34668C-5.76947e-06 5.97116 0 6.1283 4.4193e-09 5.65689C0.135721 5.47028 0.05007 5.40859 0.267959 5.34262C6.11096 5.3258 13.6418 5.35944 19.4848 5.34262C18.3468 4.22142 16.12 2.09483 15.0185 0.942815C14.7708 0.471407 14.6136 0.314272 15.0185 0.00696068Z" fill="white"/>
<path opacity="0.965" fill-rule="evenodd" clip-rule="evenodd" d="M5.70619 17.993C5.40532 18.0246 5.13592 17.9488 4.89794 17.7657C3.34039 16.2082 1.78279 14.6506 0.225243 13.093C-0.0662842 12.6917 -0.0747223 12.2876 0.199982 11.8806C0.300659 11.7797 0.418564 11.7039 0.553593 11.6533C7.18797 11.6196 13.8224 11.6196 20.4568 11.6533C20.7247 12.0288 20.7247 11.8717 20.7247 12.3431C20.589 12.5297 20.6747 12.5914 20.4568 12.6574C14.6138 12.6742 7.08289 12.6406 1.23989 12.6574C2.37791 13.7786 4.6047 15.9052 5.70619 17.0572C5.95397 17.5286 6.1111 17.6857 5.70619 17.993Z" fill="white"/>
</svg>
