<svg width="244" height="119" viewBox="0 0 244 119" fill="none" xmlns="http://www.w3.org/2000/svg">
<path d="M33.1357 0.909997H40.5057V52.005H33.1357V0.909997ZM0.740742 4.98H8.00074V17.355H18.5057V4.98H25.7657V40.125H0.740742V4.98ZM8.00074 23.02V34.24H18.5057V23.02H8.00074ZM59.9714 3.715H65.9664V8.225C65.9664 18.345 61.5664 27.255 51.8864 30.61L47.9814 24.835C56.5064 21.975 59.9714 15.155 59.9714 8.225V3.715ZM61.4564 3.715H67.3964V8.94C67.3964 15.045 70.8064 20.985 78.7814 23.46L74.9864 29.125C65.8014 26.045 61.4564 18.125 61.4564 8.94V3.715ZM81.5864 0.964999H88.9014V31.05H81.5864V0.964999ZM86.8664 12.735H95.6664V18.785H86.8664V12.735ZM72.2914 32.205C82.8514 32.205 89.5064 35.89 89.5064 42.05C89.5064 48.265 82.8514 51.895 72.2914 51.895C61.6764 51.895 55.0214 48.265 55.0214 42.05C55.0214 35.89 61.6764 32.205 72.2914 32.205ZM72.2914 37.87C65.8014 37.87 62.2814 39.245 62.2814 42.05C62.2814 44.91 65.8014 46.23 72.2914 46.23C78.7814 46.23 82.2464 44.91 82.2464 42.05C82.2464 39.245 78.7814 37.87 72.2914 37.87ZM111.337 3.275H117.387V8.17C117.387 17.795 112.712 26.54 102.757 29.73L99.1821 23.955C107.762 21.205 111.337 14.605 111.337 8.17V3.275ZM112.822 3.275H118.817V8.17C118.817 14.44 122.337 20.6 130.642 23.13L127.067 28.85C117.332 25.77 112.822 17.63 112.822 8.17V3.275ZM106.992 33.58H141.752V51.895H134.382V39.41H106.992V33.58ZM134.382 0.964999H141.752V31.325H134.382V0.964999ZM170.348 19.72H178.708V25.605H170.348V19.72ZM186.793 0.964999H193.778V51.895H186.793V0.964999ZM176.398 1.735H183.273V49.585H176.398V1.735ZM161.438 4.54C168.203 4.54 172.548 11.525 172.548 23.02C172.548 34.57 168.203 41.555 161.438 41.555C154.728 41.555 150.438 34.57 150.438 23.02C150.438 11.525 154.728 4.54 161.438 4.54ZM161.438 11.415C158.688 11.415 157.093 15.265 157.093 23.02C157.093 30.83 158.688 34.625 161.438 34.625C164.298 34.625 165.893 30.83 165.893 23.02C165.893 15.265 164.298 11.415 161.438 11.415ZM226.279 16.86H239.699V22.745H226.279V16.86ZM212.419 4.87H218.359V12.24C218.359 25.055 214.014 36.88 204.444 41.665L199.879 35.78C208.569 31.765 212.419 21.92 212.419 12.24V4.87ZM213.959 4.87H219.789V12.24C219.789 21.92 223.474 31.215 231.889 34.955L227.544 40.785C217.974 36.165 213.959 24.945 213.959 12.24V4.87ZM236.069 0.909997H243.329V52.005H236.069V0.909997ZM34.7836 69.725H40.7236V72.97C40.7236 82.65 36.2136 91.01 26.3686 94.09L22.8486 88.26C31.2636 85.73 34.7836 79.515 34.7836 72.97V69.725ZM36.2686 69.725H42.1536V72.805C42.1536 79.02 45.5636 84.795 53.7036 87.16L50.0186 92.825C40.5586 89.91 36.2686 82.1 36.2686 72.805V69.725ZM56.2886 67.965H63.6036V94.09H56.2886V67.965ZM60.6336 77.865H70.3136V83.86H60.6336V77.865ZM29.9436 96.07H63.6036V109.82H37.3136V116.035H30.0536V104.54H56.3986V101.68H29.9436V96.07ZM30.0536 112.9H65.0886V118.565H30.0536V112.9ZM87.7443 71.485C95.4993 71.485 101.109 78.525 101.109 89.635C101.109 100.855 95.4993 107.895 87.7443 107.895C79.9893 107.895 74.3793 100.855 74.3793 89.635C74.3793 78.525 79.9893 71.485 87.7443 71.485ZM87.7443 78.14C83.9493 78.14 81.4193 82.155 81.4193 89.635C81.4193 97.225 83.9493 101.295 87.7443 101.295C91.5393 101.295 94.1243 97.225 94.1243 89.635C94.1243 82.155 91.5393 78.14 87.7443 78.14ZM106.664 67.965H114.034V118.895H106.664V67.965ZM112.384 87.16H121.404V93.21H112.384V87.16ZM157.48 67.965H164.795V96.675H157.48V67.965ZM162.815 78.69H171.56V84.63H162.815V78.69ZM131.63 98.985H164.795V118.345H131.63V98.985ZM157.645 104.705H138.835V112.57H157.645V104.705ZM126.735 70.385H134.05V91.23H126.735V70.385ZM126.735 88.095H131.025C137.955 88.095 145.49 87.6 153.52 86.06L154.345 91.945C146.04 93.65 138.23 94.09 131.025 94.09H126.735V88.095ZM210.386 67.965H217.756V118.895H210.386V67.965ZM195.371 73.245H202.631C202.631 88.81 197.351 101.57 179.256 110.315L175.461 104.485C190.091 97.445 195.371 88.205 195.371 74.565V73.245ZM178.156 73.245H198.836V79.02H178.156V73.245Z" fill="white"/>
</svg>
